<svg width="123" height="30" fill="none" xmlns="http://www.w3.org/2000/svg" class="logo"><path fill-rule="evenodd" clip-rule="evenodd" d="M12.024 29.084h-.651V14.061a.983.983 0 0 1 .286-.693.963.963 0 0 1 .686-.282h3.333a.953.953 0 0 1 .686.282.976.976 0 0 1 .286.693v3.334a.986.986 0 0 1-.288.688.966.966 0 0 1-.683.284l-2.49-.014.003-.658 2.487.013h.001a.318.318 0 0 0 .224-.093c.06-.06.094-.14.095-.225v-3.33a.32.32 0 0 0-.196-.292.31.31 0 0 0-.12-.023H12.34a.31.31 0 0 0-.293.194.32.32 0 0 0-.024.122v15.023Z" fill="#CBDDBB"/><path fill-rule="evenodd" clip-rule="evenodd" d="M9.073 12.01v17.075h-.66V12.01a1.89 1.89 0 0 1 1.894-1.892h7.261a1.897 1.897 0 0 1 1.895 1.892v7.14a1.898 1.898 0 0 1-1.901 1.898h-.002l-4.51-.04.006-.659 4.506.04h.001a1.242 1.242 0 0 0 1.24-1.24v-7.14a1.232 1.232 0 0 0-1.235-1.232h-7.26a1.237 1.237 0 0 0-1.235 1.233Z" fill="#CBDDBB"/><path fill-rule="evenodd" clip-rule="evenodd" d="M6.267 9.961v19.123h-.656V9.961c0-.746.295-1.461.819-1.988a2.785 2.785 0 0 1 1.975-.824h11.071c.74.002 1.45.299 1.973.826.523.526.818 1.24.82 1.985v10.966a2.836 2.836 0 0 1-.825 1.991 2.8 2.8 0 0 1-1.983.82l-6.337-.052.006-.66 6.333.053h.001a2.134 2.134 0 0 0 1.517-.629 2.158 2.158 0 0 0 .632-1.524V9.962a2.166 2.166 0 0 0-.628-1.52c-.4-.404-.943-.631-1.51-.633H8.404a2.13 2.13 0 0 0-1.512.63c-.4.404-.626.951-.626 1.522Z" fill="#CBDDBB"/><path fill-rule="evenodd" clip-rule="evenodd" d="M3.685 6.89c-.153.37-.23.768-.23 1.17v21.024h-.654V8.061a3.721 3.721 0 0 1 1.08-2.627 3.694 3.694 0 0 1 2.615-1.089h14.876a3.682 3.682 0 0 1 2.615 1.089 3.708 3.708 0 0 1 1.08 2.627v14.683a3.722 3.722 0 0 1-1.088 2.627 3.693 3.693 0 0 1-2.621 1.081h-.001l-8.285-.065.005-.657 8.283.066a3.03 3.03 0 0 0 2.158-.89 3.054 3.054 0 0 0 .895-2.162V8.06a3.063 3.063 0 0 0-.889-2.162 3.04 3.04 0 0 0-2.152-.896H6.496a3.03 3.03 0 0 0-2.152.896 3.053 3.053 0 0 0-.66.992Z" fill="#CBDDBB"/><path fill-rule="evenodd" clip-rule="evenodd" d="M.95 4.483A3.98 3.98 0 0 0 .654 6v23.024H0V6.001a4.639 4.639 0 0 1 1.343-3.27 4.593 4.593 0 0 1 3.251-1.354H23.28a4.574 4.574 0 0 1 3.25 1.355 4.619 4.619 0 0 1 1.344 3.27V24.46a4.645 4.645 0 0 1-1.353 3.275 4.6 4.6 0 0 1-3.262 1.35h-.001l-10.52-.092.005-.656 10.518.091a3.93 3.93 0 0 0 2.8-1.158 3.969 3.969 0 0 0 1.16-2.81V6a3.978 3.978 0 0 0-1.152-2.805 3.94 3.94 0 0 0-2.79-1.162H4.595a3.924 3.924 0 0 0-2.789 1.162 3.963 3.963 0 0 0-.854 1.288Z" fill="#CBDDBB"/><path d="m46.461 3.87-2.829-2.83a.253.253 0 0 0-.177-.076h-6.179a.254.254 0 0 0-.254.254v12.115a.254.254 0 0 0 .254.254h9.008a.254.254 0 0 0 .254-.254V4.047a.254.254 0 0 0-.077-.178Zm-1.89 7.243a.635.635 0 0 1-.634.635H39.56a.647.647 0 0 1-.635-.635V3.501a.634.634 0 0 1 .635-.634h4.377a.634.634 0 0 1 .634.634v7.612ZM59.338 1.04l-.609.61a.254.254 0 0 0-.076.177v.66a.254.254 0 0 0 .254.254h2.855a.634.634 0 0 1 .634.634v9.896a.253.253 0 0 0 .254.253h1.395a.254.254 0 0 0 .254-.253V3.375a.634.634 0 0 1 .634-.634h2.855a.254.254 0 0 0 .254-.254v-.66a.254.254 0 0 0-.077-.177l-.609-.61a.254.254 0 0 0-.177-.075h-7.65a.254.254 0 0 0-.19.076ZM57.368 3.87 54.54 1.04a.254.254 0 0 0-.177-.076h-3.654a.253.253 0 0 0-.19.076l-2.703 2.83a.254.254 0 0 0-.076.177v9.287a.254.254 0 0 0 .254.253h1.459a.254.254 0 0 0 .254-.253v-4.06h5.582v4.06a.254.254 0 0 0 .254.253h1.649a.254.254 0 0 0 .254-.253V4.047a.254.254 0 0 0-.077-.178Zm-7.662 3.374v-3.68a.634.634 0 0 1 .634-.634h4.313a.634.634 0 0 1 .635.635v3.679h-5.582ZM79.018 3.87l-2.83-2.83a.253.253 0 0 0-.177-.076h-3.654a.254.254 0 0 0-.19.076l-2.702 2.83a.254.254 0 0 0-.076.177v9.287a.254.254 0 0 0 .253.253h1.46a.254.254 0 0 0 .253-.253v-4.06h5.582v4.06a.254.254 0 0 0 .254.253h1.65a.254.254 0 0 0 .253-.253V4.047a.254.254 0 0 0-.076-.178Zm-7.663 3.374v-3.68a.634.634 0 0 1 .634-.634h4.314a.634.634 0 0 1 .634.635v3.679h-5.582Z" fill="#CBDDBB"/><g clip-path="url(#a)" fill="#CBDDBB"><path d="m100.443 19.22-2.83-2.828a.254.254 0 0 0-.177-.077H93.68a.229.229 0 0 0-.09.064L90.89 19.22a.253.253 0 0 0-.076.177v9.287a.267.267 0 0 0 .253.254h1.46a.267.267 0 0 0 .253-.254v-4.06h5.582v4.06a.267.267 0 0 0 .254.254h1.649a.267.267 0 0 0 .254-.254v-9.287a.257.257 0 0 0-.076-.177Zm-7.663 3.375v-3.679a.596.596 0 0 1 .19-.444.596.596 0 0 1 .444-.19h4.314a.598.598 0 0 1 .444.19.597.597 0 0 1 .19.444v3.68H92.78ZM46.461 19.22l-2.829-2.828a.254.254 0 0 0-.177-.077h-6.179a.254.254 0 0 0-.254.254v12.116a.254.254 0 0 0 .254.254h1.46a.254.254 0 0 0 .253-.254v-3.806a.254.254 0 0 1 .254-.254h7.04a.254.254 0 0 0 .255-.253v-4.974a.254.254 0 0 0-.077-.177Zm-1.763 3.185a.254.254 0 0 1-.254.254h-5.201a.254.254 0 0 1-.254-.254v-3.87a.254.254 0 0 1 .254-.253h5.201a.254.254 0 0 1 .254.254v3.87ZM57.246 21.974a.253.253 0 0 0 .076-.178v-2.461a.253.253 0 0 0-.076-.178l-2.702-2.702a.254.254 0 0 0-.178-.076h-6.242a.254.254 0 0 0-.253.254v12.115a.254.254 0 0 0 .253.254h1.396a.254.254 0 0 0 .254-.254v-3.932a.253.253 0 0 1 .253-.254h1.802c.067 0 .13.028.178.076l4.288 4.288c.046.048.11.075.177.076h.596a.254.254 0 0 0 .254-.254v-1.547a.253.253 0 0 0-.076-.178l-2.284-2.284a.254.254 0 0 1-.012-.355l2.296-2.41Zm-7.219.685a.254.254 0 0 1-.253-.254v-3.933a.254.254 0 0 1 .253-.254h5.139a.254.254 0 0 1 .253.254v3.933a.254.254 0 0 1-.253.254h-5.139ZM89.538 21.974a.253.253 0 0 0 .076-.178v-2.461a.253.253 0 0 0-.076-.178l-2.703-2.702a.254.254 0 0 0-.177-.076h-6.242a.254.254 0 0 0-.254.254v12.115a.254.254 0 0 0 .254.254h1.395a.254.254 0 0 0 .254-.254v-3.932a.253.253 0 0 1 .254-.254h1.801c.067 0 .131.028.178.076l4.288 4.288c.047.048.11.075.178.076h.596a.254.254 0 0 0 .254-.254v-1.547a.253.253 0 0 0-.076-.178l-2.284-2.284a.254.254 0 0 1-.013-.355l2.297-2.41Zm-7.22.685a.254.254 0 0 1-.253-.254v-3.933a.254.254 0 0 1 .254-.254h5.138a.254.254 0 0 1 .254.254v3.933a.254.254 0 0 1-.254.254h-5.138ZM68.026 19.22l-2.829-2.828a.254.254 0 0 0-.177-.077h-3.54a.254.254 0 0 0-.178.076l-2.639 2.64a.254.254 0 0 0-.076.177v6.902c.001.067.029.13.076.177l2.64 2.639c.046.048.11.075.177.076h3.857c.067 0 .13-.028.177-.076l2.512-2.512a.254.254 0 0 0 .076-.178v-6.838a.253.253 0 0 0-.076-.177ZM66.2 26.783a.254.254 0 0 1-.253.254h-5.202a.254.254 0 0 1-.254-.254v-8.246a.254.254 0 0 1 .254-.254h5.202a.254.254 0 0 1 .253.254v8.246ZM119.737 24.625h-7.105a.252.252 0 0 1-.179-.074.253.253 0 0 1-.075-.18v-4.91a.254.254 0 0 1 .077-.177l2.892-2.892a.255.255 0 0 1 .178-.077h6.242a.254.254 0 0 1 .253.254v1.46a.252.252 0 0 1-.253.253h-7.105a.252.252 0 0 0-.179.074.253.253 0 0 0-.075.18v3.87a.253.253 0 0 0 .254.253h7.105a.254.254 0 0 1 .253.254v5.835a.252.252 0 0 1-.253.254h-9.135a.252.252 0 0 1-.179-.074.253.253 0 0 1-.075-.18v-1.395c0-.067.027-.132.075-.18a.252.252 0 0 1 .179-.074h7.105a.252.252 0 0 0 .253-.254V24.88a.252.252 0 0 0-.253-.254ZM69.38 27.129v-7.054a2 2 0 0 1 .601-1.43l1.67-1.633a2 2 0 0 1 1.398-.57h4.006a1.84 1.84 0 0 1 1.84 1.84v.887a.951.951 0 0 1-.952.952h-.064a.888.888 0 0 1-.888-.888.888.888 0 0 0-.888-.888h-2.82a2 2 0 0 0-2 2v4.88a2 2 0 0 0 2 2h2.44a1.269 1.269 0 0 0 0-2.537h-1.586a.951.951 0 1 1 0-1.903h2.757a2 2 0 0 1 2 2v2.344a2 2 0 0 1-2 2H71.38a2 2 0 0 1-2-2ZM102.481 29.002h-.453a.35.35 0 0 1-.326-.225.34.34 0 0 1-.021-.138l.052-11.99a.347.347 0 0 1 .348-.346h1.217a.347.347 0 0 1 .313.207l2.644 5.45a.346.346 0 0 0 .497.143.348.348 0 0 0 .129-.143l2.121-4.896.227-.554a.379.379 0 0 1 .33-.207h1.339a.349.349 0 0 1 .348.346v12.007a.346.346 0 0 1-.348.346h-.591a.367.367 0 0 1-.261-.12l-.626-.676a.41.41 0 0 1-.087-.242V21.58a.173.173 0 0 0-.251-.15.178.178 0 0 0-.08.08l-1.495 2.855a.315.315 0 0 1-.296.19h-1.496a.369.369 0 0 1-.313-.172l-1.547-2.838a.173.173 0 0 0-.193-.094.173.173 0 0 0-.138.163v6.35a.346.346 0 0 1-.104.242l-.678.692a.439.439 0 0 1-.261.104Z"/></g><defs><clipPath id="a"><path fill="#fff" transform="translate(37.023 16.315)" d="M0 0h85.001v12.687H0z"/></clipPath></defs></svg>