<svg width="114" height="131" fill="none" xmlns="http://www.w3.org/2000/svg"><path fill-rule="evenodd" clip-rule="evenodd" d="M19.334 28.49.9 98.034a13.23 13.23 0 0 0-.294 2.191c0 .828.416 1.802 1.248 2.922.833 1.072 2.204 1.607 4.113 1.607h101.056c1.909 0 3.55-.633 4.92-1.899 1.371-1.315 2.057-2.922 2.057-4.821V6.794c0-1.802-.612-3.385-1.836-4.749C110.989.682 109.495 0 107.684 0H68.099C40.583.049 24.328 9.545 19.334 28.49ZM68.102 3.732c-13.382.024-23.595 2.353-30.95 6.649-7.236 4.227-11.954 10.5-14.21 19.06l-.002.005-18.417 69.48c-.068.31-.129.705-.17 1.194.062.14.19.38.44.724a.497.497 0 0 0 .072.033c.145.057.48.146 1.102.146h101.056c.982 0 1.705-.288 2.362-.885.62-.604.883-1.234.883-2.104V6.794c0-.865-.26-1.564-.881-2.256l-.025-.028-.025-.029c-.461-.535-.92-.75-1.653-.75H68.102ZM4.777 100.834l.006.005-.006-.005Z" fill="#CBDDBB"/><path d="M0 127.932c0-.28.083-.479.25-.598.165-.123.327-.185.483-.185h.847c.428 0 .753.233.976.698.223.465.724.698 1.502.698l2.492.049c.835 0 1.252-.273 1.252-.818 0-.413-.51-.738-1.53-.976a32.22 32.22 0 0 0-1.51-.32 18.195 18.195 0 0 1-1.644-.406 10.203 10.203 0 0 1-1.495-.569 2.973 2.973 0 0 1-1.11-.897 2.239 2.239 0 0 1-.42-1.353c0-.954.339-1.687 1.018-2.2.678-.517 1.846-.776 3.502-.776l1.808.043c.973 0 1.849.252 2.627.755.783.498 1.175 1.122 1.175 1.872 0 .28-.083.482-.25.605-.165.123-.324.185-.476.185H8.65c-.428 0-.753-.232-.976-.698-.223-.469-.723-.704-1.502-.704l-2.143-.043c-.835 0-1.253.273-1.253.819 0 .299.264.543.79.733.532.19 1.173.358 1.923.505.754.143 1.511.316 2.27.52.76.204 1.403.541 1.93 1.011.532.465.797 1.046.797 1.744 0 .954-.341 1.69-1.025 2.207-.678.513-1.844.769-3.495.769l-2.157-.043c-.973 0-1.851-.249-2.634-.747-.783-.503-1.175-1.13-1.175-1.88ZM11.946 129.89v-8.877c0-.186.066-.345.2-.477a.651.651 0 0 1 .476-.2h1.324c.195 0 .356.067.484.2.133.132.2.291.2.477v8.863a.64.64 0 0 1-.207.477.663.663 0 0 1-.477.192h-1.324a.678.678 0 0 1-.477-.185.628.628 0 0 1-.2-.47ZM16.673 129.876v-8.863a.66.66 0 0 1 .192-.477.628.628 0 0 1 .47-.2h2.093c.166 0 .342.067.527.2.185.132.337.291.455.477l4.3 6.613v-6.628c0-.185.064-.341.192-.47a.663.663 0 0 1 .477-.192h1.225a.64.64 0 0 1 .47.192c.133.129.2.29.2.485v8.863a.651.651 0 0 1-.2.477.64.64 0 0 1-.47.192H24.24c-.185 0-.375-.064-.57-.192a1.58 1.58 0 0 1-.462-.477l-3.937-6.108v6.108a.651.651 0 0 1-.2.477.64.64 0 0 1-.469.192H17.35a.663.663 0 0 1-.477-.192.652.652 0 0 1-.2-.477ZM33.623 130.602c-1.575 0-2.786-.425-3.63-1.274-.84-.85-1.26-2.148-1.26-3.895 0-1.751.439-3.046 1.316-3.887.883-.844 2.205-1.267 3.966-1.267h1.587c1.05 0 1.994.252 2.834.755.845.498 1.267 1.122 1.267 1.872 0 .28-.083.482-.25.605a.834.834 0 0 1-.483.178h-.847c-.409 0-.734-.232-.976-.697-.242-.465-.84-.698-1.794-.698h-1.267c-1.04 0-1.744.223-2.114.669-.37.446-.556 1.267-.556 2.463 0 1.196.166 2.025.499 2.485.332.456.925.683 1.78.683h1.459c.764 0 1.31-.144 1.637-.434.328-.294.496-.714.506-1.26h-1.61a.663.663 0 0 1-.476-.192.664.664 0 0 1-.192-.477v-.555c0-.186.064-.342.192-.47a.651.651 0 0 1 .477-.2h3.573c.186 0 .342.067.47.2.133.128.2.284.2.47v.79c0 1.329-.399 2.351-1.196 3.068-.798.712-1.968 1.068-3.51 1.068h-1.602ZM41.248 126.508v-5.495a.668.668 0 0 1 .683-.677h1.331c.18 0 .337.067.47.2.133.132.2.291.2.477v5.51c0 .697.151 1.217.455 1.559.309.341.783.512 1.424.512h1.14c.64 0 1.112-.171 1.416-.512.308-.342.463-.862.463-1.559v-5.51a.66.66 0 0 1 .192-.477.65.65 0 0 1 .477-.2h1.324c.194 0 .358.067.491.2.133.132.2.291.2.477v5.495c0 1.301-.383 2.309-1.147 3.026-.764.712-1.88 1.068-3.346 1.068H45.74c-1.471 0-2.59-.356-3.353-1.068-.76-.717-1.14-1.725-1.14-3.026ZM53.407 129.89v-8.863c0-.195.067-.359.2-.491a.651.651 0 0 1 .476-.2h1.339c.185 0 .342.067.47.2.133.132.199.296.199.491v7.503h6.2c.186 0 .342.067.47.2.133.132.2.291.2.477v.669a.651.651 0 0 1-.2.477.64.64 0 0 1-.47.192h-8.208a.678.678 0 0 1-.477-.185.628.628 0 0 1-.199-.47ZM63.288 129.89l1.787-6.777c.484-1.847 2.06-2.772 4.727-2.777h3.837c.176 0 .32.067.435.2a.671.671 0 0 1 .178.462v8.892a.628.628 0 0 1-.2.47.678.678 0 0 1-.477.185h-1.338a.671.671 0 0 1-.484-.185.67.67 0 0 1-.185-.484v-1.794h-5.062l-.477 1.794a.855.855 0 0 1-.32.484.872.872 0 0 1-.527.185h-1.403c-.185 0-.317-.052-.398-.157-.08-.109-.121-.204-.121-.284.005-.081.014-.152.028-.214Zm3.745-3.823h4.535v-3.716h-2.03c-.455 0-.853.13-1.195.391a1.888 1.888 0 0 0-.684 1.04l-.626 2.285ZM86.888 130.239c0 .204-.121.306-.363.306h-1.709c-.18 0-.38-.064-.598-.192a1.482 1.482 0 0 1-.49-.477l-1.211-1.894c-.498-.778-1.101-1.167-1.808-1.167h-1.737v3.061a.651.651 0 0 1-.2.477.64.64 0 0 1-.47.192h-1.338a.663.663 0 0 1-.477-.192.651.651 0 0 1-.2-.477v-8.863a.66.66 0 0 1 .193-.477.628.628 0 0 1 .47-.2h5.873c1.087 0 1.977.292 2.67.876.697.584 1.046 1.371 1.046 2.363 0 1.382-.895 2.248-2.684 2.599.285.104.548.285.79.541.243.251.52.619.833 1.103l1.296 2.058a.746.746 0 0 1 .114.363Zm-7.916-5.439h3.032c.49 0 .919-.097 1.289-.292.375-.195.562-.505.562-.933 0-.427-.187-.738-.562-.932-.37-.195-.8-.292-1.289-.292h-3.032v2.449ZM88.077 129.89v-8.877c0-.186.066-.345.2-.477a.651.651 0 0 1 .476-.2h1.324c.195 0 .356.067.484.2.133.132.2.291.2.477v8.863a.64.64 0 0 1-.207.477.663.663 0 0 1-.477.192h-1.324a.678.678 0 0 1-.477-.185.628.628 0 0 1-.2-.47ZM91.928 121.682v-.669a.659.659 0 0 1 .677-.677h9.034a.657.657 0 0 1 .676.677v.669a.657.657 0 0 1-.192.484.672.672 0 0 1-.484.185h-3.175v7.539a.628.628 0 0 1-.2.47.653.653 0 0 1-.47.185H96.45a.678.678 0 0 1-.477-.185.64.64 0 0 1-.192-.47v-7.539h-3.175a.671.671 0 0 1-.484-.185.657.657 0 0 1-.193-.484ZM102.607 120.678c0-.228.123-.342.37-.342h1.353c.536 0 .949.226 1.238.677l2.307 3.552 2.299-3.552c.295-.451.708-.677 1.239-.677h1.36c.242 0 .363.114.363.342a.63.63 0 0 1-.114.335l-3.809 5.887v2.99a.627.627 0 0 1-.199.47.654.654 0 0 1-.47.185h-1.338a.679.679 0 0 1-.477-.185.628.628 0 0 1-.2-.47v-2.99l-3.801-5.887a.604.604 0 0 1-.121-.335Z" fill="#CBDDBB"/><mask id="a" style="mask-type:alpha" maskUnits="userSpaceOnUse" x="0" y="0" width="114" height="105"><path fill-rule="evenodd" clip-rule="evenodd" d="M19.334 28.49.9 98.034a13.23 13.23 0 0 0-.294 2.191c0 .828.416 1.802 1.248 2.922.833 1.072 2.204 1.607 4.113 1.607h14.074v.001h85.315v-.001h1.667c1.909 0 3.55-.633 4.92-1.899 1.371-1.315 2.057-2.922 2.057-4.821V6.794c0-1.802-.612-3.385-1.836-4.749C110.989.682 109.495 0 107.684 0H68.099C40.583.049 24.328 9.545 19.334 28.49Z" fill="#CBDDBB"/></mask><g mask="url(#a)" fill-rule="evenodd" clip-rule="evenodd" fill="#CBDDBB"><path d="M36.856 71.8a3.83 3.83 0 1 0 7.194 2.633 3.83 3.83 0 0 0-7.194-2.632Zm1.7 6.498a5.517 5.517 0 1 1 3.793-10.362 5.517 5.517 0 0 1-3.792 10.362Z"/><path d="M31.756 67.335c1.981-3.17 5.744-4.346 9.277-3.168 2.106.702 3.631 2.445 4.482 4.366.849 1.914 1.064 4.088.454 5.717-1.18 3.145-4.135 5.321-7.5 5.321v-.843c2.992 0 5.646-1.937 6.71-4.774.511-1.363.353-3.302-.435-5.08-.784-1.77-2.157-3.3-3.977-3.906-3.197-1.066-6.538.002-8.296 2.814l-.715-.447Z"/><path d="M33.493 59.51c1.494-.38 3.317-.212 6.06.734 5.637 1.943 8.752 8.163 6.805 13.81l-.002.002c-1.162 3.293-3.686 5.828-6.815 6.805l-.251-.805c2.853-.891 5.189-3.216 6.27-6.28 1.791-5.195-1.076-10.94-6.282-12.735-2.678-.923-4.314-1.035-5.577-.714-1.232.313-2.166 1.047-3.426 2.038l-.133.105-.521-.664.188-.148c1.209-.952 2.274-1.79 3.684-2.149Z"/><path d="M37.866 57.25c7.329 2.319 11.184 10.228 8.676 17.366-1.155 3.274-3.468 5.976-6.368 7.523l-.397-.744c2.708-1.445 4.882-3.977 5.97-7.06 2.352-6.694-1.268-14.111-8.142-16.282l-.007-.002-.006-.003c-3.074-1.085-6.15-.907-9.06.184l-.296-.79c3.07-1.15 6.35-1.348 9.63-.192Z"/><path d="M27.359 53.686c2.694-.577 5.86-.392 8.64.575 8.812 3.065 13.419 12.456 10.546 21.089-.966 3.276-3.082 5.961-5.567 7.873l-.514-.669c2.373-1.825 4.368-4.372 5.273-7.45l.003-.007.002-.007c2.73-8.19-1.636-17.116-10.02-20.032-2.638-.918-5.646-1.091-8.186-.547l-.177-.825Z"/><path d="M27.043 51.06c2.495-.191 4.98.194 7.447.953l.01.003c10.312 3.437 15.858 14.518 12.417 24.65-.955 2.865-2.485 5.352-4.588 7.456l-.596-.597c2.009-2.01 3.47-4.383 4.384-7.126l.001-.002c3.288-9.682-2.007-20.285-11.88-23.58-2.392-.735-4.767-1.097-7.13-.915l-.066-.841Z"/><path d="M26.707 48.63c2.114 0 4.068.385 6.305 1.143l-.135.4.135-.4a22.55 22.55 0 0 1 14.29 28.378c-.768 2.68-2.107 4.972-3.817 7.061l-.652-.534c1.654-2.022 2.93-4.215 3.66-6.766l.001-.007.003-.006a21.706 21.706 0 0 0-13.755-27.327c-2.173-.736-4.035-1.1-6.034-1.1v-.843Z"/><path d="M26.46 46.79c1.746.172 3.18.314 5.61 1.112 13.306 4.372 20.532 18.63 16.161 31.936-.764 2.482-1.91 4.579-3.425 6.664l-.683-.496c1.475-2.028 2.572-4.043 3.303-6.42l.003-.007c4.227-12.865-2.756-26.648-15.622-30.875m-5.346-1.915-.275-.027.274.027Zm-.275-.027-.084.84.084-.84Zm-.084.84.273.026-.273-.027Zm.273.026c1.73.172 3.09.307 5.432 1.076l-5.432-1.076Z"/><path d="M27.879 45.108c.642.123 1.506.364 3.255.924 14.8 4.744 22.961 20.678 18.037 35.48-.578 2.3-1.726 4.397-2.848 6.268l-.723-.434c1.118-1.864 2.212-3.876 2.756-6.055l.004-.016.005-.015c4.786-14.358-3.129-29.822-17.488-34.424m-2.998-1.728c-.416-.079-.75-.109-1.156-.145l1.156.145Zm-1.156-.145c-.212-.019-.444-.04-.719-.07l.72.07Zm-.719-.07-.093.838.093-.838Zm-.093.838c.323.036.573.058.788.077l-.788-.077Zm.788.077c.374.033.645.057 1.022.129l-1.022-.129Zm1.022.129c.586.111 1.404.338 3.156.899l-3.156-.899Z"/><path d="M26.375 42.837c1.72.191 3.245.573 4.947 1.14 16.113 5.309 25.017 22.933 19.711 39.23l-.002.007-.002.006c-.756 2.077-1.701 4.159-2.84 6.055l-.723-.434c1.104-1.84 2.027-3.868 2.767-5.902 5.159-15.857-3.51-33-19.175-38.16l-.002-.001c-1.663-.554-3.129-.92-4.774-1.103l.093-.838Z"/><path d="m31.848 41.91.034.01c17.794 5.868 27.45 24.988 21.58 42.783l-.002.01-.013.032c-.928 2.414-1.876 4.877-3.207 6.97l-.712-.453c1.28-2.012 2.2-4.397 3.137-6.833 5.715-17.347-3.696-35.983-21.041-41.706-1.878-.563-3.706-1.11-5.342-1.292l.093-.838c1.721.191 3.62.76 5.473 1.316Z"/><path d="M26.172 37.975c2.288.19 4.566.761 6.828 1.515 19.29 6.43 29.69 27.232 23.45 46.52l-.002.006-.002.006c-.94 2.632-2.074 5.28-3.59 7.744l-.719-.442c1.474-2.395 2.583-4.98 3.512-7.58 6.094-18.849-4.07-39.172-22.916-45.453-2.225-.742-4.433-1.293-6.631-1.476l.07-.84Z"/><path d="M35.06 36.874c20.784 6.805 32.118 29.288 25.316 50.071l-.003.01c-1.133 3.21-2.642 6.227-4.336 9.05l-.723-.434c1.67-2.785 3.152-5.749 4.262-8.893 6.655-20.342-4.442-42.348-24.783-49.005l-.01-.003c-2.584-.923-5.164-1.475-7.74-1.66l.06-.84c2.655.19 5.308.758 7.958 1.704Z"/><path d="M26.912 31.619c3.78.189 7.554.944 11.317 2.073l.008.003C60.521 40.87 72.793 65.04 65.43 87.322l-.002.006-.002.006c-1.504 4.136-3.39 8.1-5.85 11.507l-.684-.494c2.4-3.322 4.252-7.208 5.74-11.295 7.212-21.836-4.816-45.52-26.648-52.553-3.714-1.114-7.417-1.853-11.113-2.038l.042-.842Z"/><path d="M42.162 29.956c23.776 7.739 36.792 33.587 29.058 57.36-1.511 4.912-3.966 9.441-6.983 13.401l-.671-.511c2.964-3.89 5.37-8.334 6.85-13.142l.001-.006c7.594-23.336-5.187-48.709-28.52-56.3l-.007-.003c-4.803-1.663-9.801-2.22-14.63-2.22v-.844c4.89 0 9.986.564 14.902 2.265Z"/><path d="M-12.875 57.23c-7.485 25.107 6.8 51.528 31.908 59.013 25.107 7.484 51.527-6.801 59.012-31.908 7.485-25.107-6.801-51.528-31.908-59.012-25.107-7.485-51.527 6.8-59.012 31.907Zm31.667 59.821c-25.554-7.618-40.093-34.508-32.475-60.062 7.617-25.553 34.508-40.093 60.061-32.475 25.553 7.618 40.093 34.509 32.475 60.062-7.617 25.553-34.508 40.093-60.061 32.475Z"/><path d="M-9.763 54.073c-8.236 26.605 6.656 54.849 33.26 63.085 26.606 8.236 54.85-6.656 63.086-33.261 8.235-26.605-6.656-54.85-33.261-63.085-26.605-8.236-54.85 6.656-63.085 33.26Zm33.011 63.891c-27.05-8.374-42.19-37.09-33.817-64.14 8.373-27.05 37.09-42.191 64.14-33.818 27.05 8.374 42.191 37.09 33.817 64.14-8.373 27.051-37.09 42.191-64.14 33.818Z"/><path d="M-5.118 49.387c-8.84 28.039 6.722 57.935 34.761 66.776 28.039 8.841 57.936-6.723 66.776-34.761 8.841-28.04-6.722-57.936-34.761-66.776-28.039-8.84-57.936 6.722-66.776 34.761Zm34.508 67.58c-28.484-8.98-44.293-39.35-35.313-67.834C3.058 20.65 33.428 4.841 61.911 13.821c28.483 8.98 44.293 39.351 35.313 67.834-8.981 28.483-39.351 44.293-67.835 35.312Z"/><path d="M.982 44.153c-9.44 29.581 6.887 61.215 36.468 70.655 29.582 9.441 61.215-6.886 70.656-36.468 9.441-29.581-6.887-61.215-36.468-70.656C42.056-1.756 10.423 14.571.982 44.153Zm36.212 71.459C7.168 106.03-9.404 73.922.178 43.896 9.761 13.871 41.87-2.702 71.894 6.881c30.026 9.582 46.598 41.69 37.016 71.716-9.583 30.025-41.69 46.597-71.716 37.015Z"/><path d="M8.747 37.145c-9.966 31.04 7.118 64.281 38.157 74.246 31.04 9.966 64.281-7.118 74.247-38.157 9.966-31.04-7.118-64.281-38.158-74.247-31.04-9.966-64.28 7.118-74.246 38.158Zm37.9 75.049C15.162 102.086-2.166 68.37 7.943 36.887 18.052 5.404 51.768-11.924 83.25-1.816c31.483 10.108 48.811 43.825 38.703 75.308-10.108 31.483-43.824 48.811-75.308 38.702Z"/><path d="M18.495 29.49c-10.527 32.596 7.283 67.527 39.778 78.022 32.494 10.496 67.373-7.417 77.901-40.012 10.528-32.595-7.283-67.526-39.778-78.022-32.494-10.495-67.373 7.418-77.9 40.013Zm39.518 78.825c-32.94-10.64-50.99-46.047-40.32-79.083 10.67-33.037 46.022-51.196 78.963-40.556 32.94 10.64 50.991 46.047 40.32 79.083-10.67 33.036-46.022 51.195-78.963 40.556Z"/><path d="M30.106 20.961c-10.991 33.828 7.521 70.16 41.348 81.151s70.16-7.521 81.151-41.348-7.521-70.16-41.348-81.15c-33.828-10.992-70.16 7.52-81.151 41.347Zm40.827 82.755C36.22 92.437 17.223 55.153 28.502 20.44 39.78-14.273 77.065-33.27 111.778-21.99c34.713 11.279 53.71 48.563 42.431 83.276-11.279 34.713-48.563 53.71-83.276 42.431Z"/></g></svg>