<svg width="94" height="31" fill="none" xmlns="http://www.w3.org/2000/svg" class="logo"><path fill-rule="evenodd" clip-rule="evenodd" d="M47.961 6.791c0-1.95-1.473-3.002-3.22-3.002h-4.216v9.551h2.156v-3.247h1.828c2.238 0 3.452-1.5 3.452-3.302Zm-2.248.137c0 .819-.532 1.365-1.256 1.365H42.67V5.59h1.787c.723 0 1.256.464 1.256 1.337Zm7.876.97V5.795h-.655c-.75 0-1.473.328-1.842.955v-.955h-2.033v7.545h2.101V9.33c0-1.05.614-1.446 1.651-1.446.287 0 .778.013.778.013Zm4.263 5.538c2.183 0 3.738-1.31 3.738-3.861 0-2.565-1.555-3.875-3.738-3.875-2.17 0-3.725 1.31-3.725 3.875 0 2.551 1.555 3.861 3.725 3.861Zm.003-6.031c.914 0 1.596.614 1.596 2.17 0 1.541-.682 2.155-1.596 2.155-.887 0-1.583-.613-1.583-2.155 0-1.556.696-2.17 1.583-2.17Zm8.923 5.908v-1.746s-.477.041-.914.041c-.45 0-.586-.123-.586-.587V7.489h1.596V5.796h-1.596V3.791h-2.115v2.005H62.07v1.692h1.092v3.643c0 1.405.205 2.265 1.965 2.265.954 0 1.65-.082 1.65-.082Zm4.367.123c2.183 0 3.739-1.31 3.739-3.861 0-2.565-1.556-3.875-3.739-3.875-2.17 0-3.725 1.31-3.725 3.875 0 2.551 1.555 3.861 3.725 3.861Zm.003-6.031c.914 0 1.596.614 1.596 2.17 0 1.541-.682 2.155-1.596 2.155-.887 0-1.582-.613-1.582-2.155 0-1.556.695-2.17 1.582-2.17Zm9.552 3.084c-.137.9-.75 1.242-1.42 1.242-.859 0-1.54-.614-1.54-2.156 0-1.555.668-2.17 1.568-2.17.71 0 1.255.355 1.365 1.283h2.115C82.61 6.696 81.19 5.7 79.295 5.7c-2.17 0-3.725 1.35-3.725 3.902 0 2.565 1.597 3.834 3.766 3.834 1.938 0 3.247-.996 3.466-2.947H80.7Zm6.436 2.947c2.183 0 3.739-1.31 3.739-3.861 0-2.565-1.556-3.875-3.739-3.875-2.17 0-3.725 1.31-3.725 3.875 0 2.551 1.556 3.861 3.725 3.861Zm.003-6.031c.914 0 1.596.614 1.596 2.17 0 1.541-.682 2.155-1.596 2.155-.887 0-1.582-.613-1.582-2.155 0-1.556.695-2.17 1.582-2.17ZM94 13.34V3.244H91.9v10.097H94ZM47.301 28.348v-1.883H42.69v-7.667h-2.156v9.55h6.767Zm5.687-2.892c0 .64-.437 1.46-1.678 1.46-.805 0-1.024-.505-1.024-.847 0-.477.369-.777.873-.873.518-.11 1.828-.273 1.828-.273v.532Zm-4.612-2.183h2.033c0-.3.082-.928 1.324-.928 1.01 0 1.256.355 1.256.873v.26l-2.484.354c-.695.096-2.373.519-2.373 2.238 0 1.515 1.16 2.374 2.715 2.374 1.296 0 1.869-.437 2.196-.777v.682h2.224s-.163-.573-.163-1.12v-4.065c0-1.092-.6-2.456-3.37-2.456-2.865 0-3.329 1.46-3.356 2.565h-.002Zm10.185 5.076v-.737c.382.477 1.05.832 1.883.832 2.046 0 3.451-1.31 3.451-3.861 0-2.565-1.432-3.875-3.329-3.875-.832 0-1.623.355-2.005.832v-3.288H56.46v10.096h2.1Zm1.598-5.935c.915 0 1.597.613 1.597 2.17 0 1.54-.682 2.155-1.597 2.155-1.023 0-1.582-.477-1.582-2.156 0-1.692.56-2.17 1.582-2.17Zm8.994.627h2.06c0-.587-.3-2.334-3.247-2.334-1.801 0-3.234.805-3.234 2.36 0 1.76 1.419 2.13 3.043 2.348l.41.054c.586.082 1.132.205 1.132.669 0 .545-.587.764-1.256.764-.723 0-1.364-.219-1.364-.942h-2.115c0 .396.177 2.483 3.356 2.483 2.824 0 3.506-1.378 3.506-2.537 0-3.043-4.611-1.829-4.611-2.988 0-.519.573-.683 1.105-.683.723 0 1.214.287 1.214.805h.001Zm-54.998.08c.324.187.586.644.586 1.016v6.426c0 .373-.264.524-.586.339l-5.56-3.21c-.324-.187-.587-.644-.587-1.015V20.25c0-.373.265-.524.586-.338l5.561 3.21Zm8.589-5.669c0 .374-.264.83-.586 1.016l-5.563 3.21c-.324.188-.586.034-.586-.338v-6.424c0-.373.264-.829.586-1.015l5.563-3.211c.323-.187.586-.034.586.338v6.425Zm-1.222-8.53c.329.19.331.497.009.683l-5.566 3.213c-.324.187-.854.183-1.182-.006L1.25 5c-.33-.19-.331-.496-.01-.682l5.568-3.213c.323-.187.853-.184 1.181.006l13.533 7.813h-.001v-.001ZM6.757 25.949c0 .375-.264.526-.585.34l-5.56-3.21c-.323-.187-.585-.647-.585-1.025V6.427c0-.38.268-.532.595-.343l13.53 7.81c.33.189.595.648.595 1.02v6.426c0 .373-.266.523-.587.337l-6.815-3.933c-.325-.187-.587-.032-.587.34V25.947Zm17.238-15.641c0-.375.264-.83.586-1.016l5.562-3.212c.323-.186.586-.028.586.35v15.625c0 .38-.268.843-.595 1.031l-13.53 7.81c-.33.19-.595.039-.595-.333v-6.426c0-.374.265-.83.587-1.016l6.811-3.931c.324-.187.588-.646.588-1.018v-7.865Zm-6.78-5.315c-.323-.187-.321-.49 0-.677l5.566-3.212c.323-.186.85-.185 1.172 0l5.565 3.213c.323.187.322.49 0 .677l-5.565 3.213c-.323.186-.85.185-1.172 0l-5.565-3.214Z" fill="#CBDDBB"/></svg>